<svg width="43" height="33" viewBox="0 0 43 33" fill="none" xmlns="http://www.w3.org/2000/svg">
<rect x="1" y="1" width="41" height="31" rx="8" fill="#44404B"/>
<rect x="1" y="1" width="41" height="31" rx="8" stroke="#EDEDED" stroke-width="2"/>
<path d="M16.056 14.286C16.056 14.734 15.9627 15.126 15.776 15.462C15.5987 15.798 15.3513 16.0733 15.034 16.288C14.7167 16.4933 14.348 16.6427 13.928 16.736V16.778C14.7307 16.8713 15.3373 17.1187 15.748 17.52C16.1587 17.9213 16.364 18.4533 16.364 19.116C16.364 19.6947 16.224 20.2127 15.944 20.67C15.664 21.1273 15.23 21.4867 14.642 21.748C14.0633 22.0093 13.3167 22.14 12.402 22.14C11.8607 22.14 11.3567 22.0933 10.89 22C10.4233 21.916 9.98467 21.7807 9.574 21.594V20.04C9.994 20.2547 10.442 20.418 10.918 20.53C11.394 20.642 11.842 20.698 12.262 20.698C13.074 20.698 13.648 20.5533 13.984 20.264C14.32 19.9653 14.488 19.5547 14.488 19.032C14.488 18.696 14.404 18.4207 14.236 18.206C14.068 17.9913 13.7927 17.8327 13.41 17.73C13.0367 17.618 12.5467 17.562 11.94 17.562H11.1V16.148H11.954C12.542 16.148 13.004 16.0827 13.34 15.952C13.6853 15.8213 13.928 15.6393 14.068 15.406C14.2173 15.1727 14.292 14.902 14.292 14.594C14.292 14.1927 14.1613 13.88 13.9 13.656C13.6387 13.432 13.2467 13.32 12.724 13.32C12.388 13.32 12.0847 13.3573 11.814 13.432C11.5433 13.5067 11.296 13.6047 11.072 13.726C10.848 13.838 10.638 13.9593 10.442 14.09L9.602 12.872C9.854 12.6853 10.1387 12.5173 10.456 12.368C10.7733 12.2093 11.128 12.088 11.52 12.004C11.912 11.9107 12.3413 11.864 12.808 11.864C13.844 11.864 14.642 12.0833 15.202 12.522C15.7713 12.9513 16.056 13.5393 16.056 14.286ZM24.4317 16.988C24.4317 17.8 24.3711 18.5233 24.2497 19.158C24.1284 19.7927 23.9277 20.334 23.6477 20.782C23.3771 21.2207 23.0224 21.5567 22.5837 21.79C22.1544 22.0233 21.6271 22.14 21.0017 22.14C20.2177 22.14 19.5737 21.9347 19.0697 21.524C18.5657 21.1133 18.1924 20.5253 17.9497 19.76C17.7071 18.9853 17.5857 18.0613 17.5857 16.988C17.5857 15.9147 17.6977 14.9953 17.9217 14.23C18.1457 13.4647 18.5051 12.8767 18.9997 12.466C19.5037 12.0553 20.1711 11.85 21.0017 11.85C21.7857 11.85 22.4297 12.0553 22.9337 12.466C23.4377 12.8673 23.8111 13.4553 24.0537 14.23C24.3057 14.9953 24.4317 15.9147 24.4317 16.988ZM19.3637 17.002C19.3637 17.814 19.4151 18.4953 19.5177 19.046C19.6204 19.5873 19.7884 19.998 20.0217 20.278C20.2644 20.5487 20.5911 20.684 21.0017 20.684C21.4124 20.684 21.7344 20.5487 21.9677 20.278C22.2104 20.0073 22.3831 19.5967 22.4857 19.046C22.5977 18.4953 22.6537 17.814 22.6537 17.002C22.6537 16.1807 22.5977 15.4993 22.4857 14.958C22.3831 14.4073 22.2104 13.9967 21.9677 13.726C21.7344 13.446 21.4124 13.306 21.0017 13.306C20.5911 13.306 20.2644 13.446 20.0217 13.726C19.7884 13.9967 19.6204 14.4027 19.5177 14.944C19.4151 15.4853 19.3637 16.1713 19.3637 17.002ZM28.6634 22.14C27.7861 22.14 27.0721 21.8133 26.5214 21.16C25.9801 20.4973 25.7094 19.5173 25.7094 18.22C25.7094 16.9227 25.9848 15.9427 26.5354 15.28C27.0861 14.608 27.8094 14.272 28.7054 14.272C29.0788 14.272 29.4054 14.3233 29.6854 14.426C29.9748 14.5193 30.2221 14.65 30.4274 14.818C30.6328 14.986 30.8054 15.1727 30.9454 15.378H31.0294C31.0014 15.2473 30.9734 15.0467 30.9454 14.776C30.9174 14.5053 30.9034 14.2533 30.9034 14.02V11.36H32.6674V22H31.2954L30.9734 21.006H30.9034C30.7634 21.2113 30.5908 21.4027 30.3854 21.58C30.1801 21.748 29.9374 21.8833 29.6574 21.986C29.3774 22.0887 29.0461 22.14 28.6634 22.14ZM29.1954 20.712C29.8488 20.712 30.3108 20.5253 30.5814 20.152C30.8521 19.7787 30.9874 19.214 30.9874 18.458V18.234C30.9874 17.4127 30.8568 16.7873 30.5954 16.358C30.3434 15.9287 29.8674 15.714 29.1674 15.714C28.6354 15.714 28.2248 15.938 27.9354 16.386C27.6461 16.8247 27.5014 17.4453 27.5014 18.248C27.5014 19.0507 27.6461 19.662 27.9354 20.082C28.2248 20.502 28.6448 20.712 29.1954 20.712Z" fill="white"/>
</svg>
