<svg width="28" height="28" viewBox="0 0 28 28" fill="none" xmlns="http://www.w3.org/2000/svg">
<rect x="1" y="1" width="26" height="26" rx="13" fill="#EDEDED"/>
<rect x="1" y="1" width="26" height="26" rx="13" stroke="#44404B" stroke-width="2"/>
<path d="M12.5045 15.904C12.5045 15.5307 12.5472 15.2053 12.6325 14.928C12.7285 14.64 12.8778 14.368 13.0805 14.112C13.2938 13.856 13.5765 13.5947 13.9285 13.328C14.2912 13.0507 14.5738 12.8107 14.7765 12.608C14.9898 12.4053 15.1445 12.208 15.2405 12.016C15.3365 11.8133 15.3845 11.584 15.3845 11.328C15.3845 10.9227 15.2405 10.6133 14.9525 10.4C14.6752 10.1867 14.2752 10.08 13.7525 10.08C13.2832 10.08 12.8352 10.1493 12.4085 10.288C11.9818 10.416 11.5552 10.592 11.1285 10.816L10.4085 9.312C10.8992 9.056 11.4325 8.84267 12.0085 8.672C12.5845 8.50133 13.2192 8.416 13.9125 8.416C14.9792 8.416 15.8058 8.67733 16.3925 9.2C16.9898 9.72267 17.2885 10.4 17.2885 11.232C17.2885 11.6907 17.2138 12.0853 17.0645 12.416C16.9258 12.736 16.7178 13.0347 16.4405 13.312C16.1632 13.5893 15.8218 13.8827 15.4165 14.192C15.0858 14.448 14.8298 14.6667 14.6485 14.848C14.4778 15.0293 14.3605 15.2107 14.2965 15.392C14.2432 15.5627 14.2165 15.776 14.2165 16.032V16.432H12.5045V15.904ZM12.2005 18.976C12.2005 18.5173 12.3178 18.1973 12.5525 18.016C12.7978 17.8347 13.0912 17.744 13.4325 17.744C13.7632 17.744 14.0458 17.8347 14.2805 18.016C14.5258 18.1973 14.6485 18.5173 14.6485 18.976C14.6485 19.4133 14.5258 19.728 14.2805 19.92C14.0458 20.112 13.7632 20.208 13.4325 20.208C13.0912 20.208 12.7978 20.112 12.5525 19.92C12.3178 19.728 12.2005 19.4133 12.2005 18.976Z" fill="#44404B"/>
</svg>
